<svg width="40" height="40" viewBox="0 0 40 40" fill="none" xmlns="http://www.w3.org/2000/svg">
<rect width="40" height="40" rx="20" fill="#D8E8F3"/>
<g clip-path="url(#clip0_5909_107706)">
<path fill-rule="evenodd" clip-rule="evenodd" d="M20.0387 19.1853C19.6242 14.0435 15.32 10 10.0714 10C10.0714 15.2242 14.0775 19.5128 19.1853 19.9613C14.0435 20.3758 10 24.68 10 29.9286C15.2242 29.9286 19.5128 25.9225 19.9613 20.8147C20.3758 25.9565 24.68 30 29.9286 30C29.9286 24.7758 25.9225 20.4872 20.8147 20.0387C25.9565 19.6242 30 15.32 30 10.0714C24.7758 10.0714 20.4872 14.0775 20.0387 19.1853ZM19.9998 20.0002C19.9999 20.0002 20.0001 20.0003 20.0002 20.0003L20.0003 19.9998C20.0001 19.9998 19.9999 19.9998 19.9998 19.9998C19.9998 19.9999 19.9998 20.0001 19.9998 20.0002Z" fill="#222A54"/>
</g>
<defs>
<clipPath id="clip0_5909_107706">
<rect width="20" height="20" fill="white" transform="translate(10 10)"/>
</clipPath>
</defs>
</svg>
