<svg width="24" height="24" viewBox="0 0 24 24" fill="none" xmlns="http://www.w3.org/2000/svg">
<path d="M6 11.3798C6 11.9102 6.21071 12.4189 6.58579 12.794C6.96086 13.169 7.46957 13.3798 8 13.3798H17L21 15.8734V4.37976C21 3.84933 20.7893 3.34062 20.4142 2.96555C20.0391 2.59047 19.5304 2.37976 19 2.37976H8C7.46957 2.37976 6.96086 2.59047 6.58579 2.96555C6.21071 3.34062 6 3.84933 6 4.37976V11.3798Z" stroke="#CCD4E0" stroke-width="2" stroke-linecap="round" stroke-linejoin="round"/>
<path d="M15.2447 17.1266C15.2447 17.657 15.034 18.1657 14.6589 18.5408C14.2839 18.9159 13.7752 19.1266 13.2447 19.1266H6.22803L2.22803 21.6202V11.1266C2.22803 10.5962 2.43874 10.0874 2.81381 9.71237C3.18889 9.3373 3.69759 9.12659 4.22803 9.12659H5.85693" stroke="#CCD4E0" stroke-width="2" stroke-linecap="round" stroke-linejoin="round"/>
<line x1="10.7471" y1="8.12659" x2="16.2526" y2="8.12659" stroke="#CCD4E0" stroke-width="2" stroke-linecap="round"/>
</svg>
