<svg width="38" height="34" viewBox="0 0 38 34" fill="none" xmlns="http://www.w3.org/2000/svg">
<g clip-path="url(#clip0_259_135339)">
<path fill-rule="evenodd" clip-rule="evenodd" d="M18.6781 11.3188C10.6548 11.3188 4.15065 17.7571 4.15065 25.6993V27.1494C4.15065 29.0404 5.69926 30.5733 7.60956 30.5733H8.70362C9.83315 30.5733 10.7553 29.6791 10.7785 28.5613L10.7939 27.8201C10.7991 27.5712 10.9403 27.3448 11.1626 27.2286C11.385 27.1124 11.6535 27.1248 11.864 27.2609L13.0017 27.9969C16.4504 30.2277 20.9057 30.2277 24.3544 27.9969L25.4921 27.2609C25.7026 27.1248 25.9712 27.1124 26.1935 27.2286C26.4159 27.3448 26.557 27.5712 26.5622 27.8201L26.5776 28.5613C26.6009 29.6791 27.523 30.5733 28.6525 30.5733H29.7466C31.6569 30.5733 33.2055 29.0404 33.2055 27.1494V25.6993C33.2055 17.7571 26.7013 11.3188 18.6781 11.3188ZM2.76709 25.6993C2.76709 17.0007 9.89068 9.94922 18.6781 9.94922C27.4655 9.94922 34.589 17.0008 34.589 25.6993V27.1494C34.589 29.7968 32.421 31.9429 29.7466 31.9429H28.6525C26.9322 31.9429 25.5005 30.6983 25.237 29.062L25.1113 29.1434C21.2027 31.6716 16.1534 31.6716 12.2449 29.1434L12.1191 29.062C11.8556 30.6983 10.424 31.9429 8.70362 31.9429H7.60956C4.93514 31.9429 2.76709 29.7968 2.76709 27.1494V25.6993Z" fill="#243CBB"/>
<path fill-rule="evenodd" clip-rule="evenodd" d="M17.9863 7.5308C7.99119 7.89103 0 16.0255 0 26.0075V27.8369C0 31.2407 2.78749 34 6.22603 34H31.1302C34.5687 34 37.3562 31.2407 37.3562 27.8369V26.0075C37.3562 16.0255 29.365 7.89103 19.3699 7.5308V4.79346H17.9863V7.5308ZM18.6781 8.88792C9.12659 8.88792 1.38356 16.5526 1.38356 26.0075V27.8369C1.38356 30.4843 3.55161 32.6304 6.22603 32.6304H31.1302C33.8046 32.6304 35.9726 30.4843 35.9726 27.8369V26.0075C35.9726 16.5526 28.2296 8.88792 18.6781 8.88792Z" fill="#243CBB"/>
<path fill-rule="evenodd" clip-rule="evenodd" d="M18.6783 1.36957C17.9141 1.36957 17.2947 1.98275 17.2947 2.73914C17.2947 3.49553 17.9141 4.10871 18.6783 4.10871C19.4424 4.10871 20.0618 3.49553 20.0618 2.73914C20.0618 1.98275 19.4424 1.36957 18.6783 1.36957ZM15.9111 2.73914C15.9111 1.22635 17.15 0 18.6783 0C20.2065 0 21.4454 1.22635 21.4454 2.73914C21.4454 4.25192 20.2065 5.47828 18.6783 5.47828C17.15 5.47828 15.9111 4.25192 15.9111 2.73914Z" fill="#243CBB"/>
<circle cx="12.2776" cy="21.7224" r="1.88889" fill="#243CBB"/>
<ellipse cx="25.5002" cy="21.7224" rx="1.88889" ry="1.88889" fill="#243CBB"/>
</g>
<defs>
<clipPath id="clip0_259_135339">
<rect width="38" height="34" fill="white"/>
</clipPath>
</defs>
</svg>
