<svg width="32" height="32" viewBox="0 0 32 32" fill="none" xmlns="http://www.w3.org/2000/svg">
<g clip-path="url(#clip0_1759_329444)">
<path d="M27.3145 4.68548C24.2912 1.66217 20.2732 0 16 0C11.7268 0 7.70879 1.66217 4.68548 4.68548C1.66217 7.70879 0 11.7268 0 16C0 20.2732 1.66217 24.2912 4.68548 27.3145C7.70879 30.3378 11.7268 32 16 32C20.2732 32 24.2912 30.3378 27.3145 27.3145C30.3378 24.2912 32 20.2732 32 16C32 11.7268 30.3378 7.70879 27.3145 4.68548Z" fill="#243CBB"/>
<path d="M19.7367 12.3101L14.2332 17.8201L12.2634 15.8504C11.9166 15.5036 11.3604 15.5036 11.0135 15.8504C10.6667 16.1972 10.6667 16.7534 11.0135 17.1003L13.6115 19.6982C13.7816 19.8684 14.0107 19.96 14.2332 19.96C14.4557 19.96 14.6847 19.8749 14.8549 19.6982L20.9866 13.5665C21.3334 13.2197 21.3334 12.6635 20.9866 12.3166C20.6463 11.9633 20.0835 11.9633 19.7367 12.3101Z" fill="white"/>
</g>
<defs>
<clipPath id="clip0_1759_329444">
<rect width="32" height="32" fill="white"/>
</clipPath>
</defs>
</svg>
