<svg width="38" height="40" viewBox="0 0 38 40" fill="none" xmlns="http://www.w3.org/2000/svg">
<g clip-path="url(#clip0_1759_329368)">
<path d="M25.6167 15.3327C25.6167 14.9647 25.3187 14.666 24.95 14.666H8.28337C7.9147 14.666 7.6167 14.9647 7.6167 15.3327C7.6167 15.7007 7.9147 15.9993 8.28337 15.9993H24.95C25.3187 15.9993 25.6167 15.7007 25.6167 15.3327Z" fill="#A6B3C9"/>
<path d="M8.28337 10.6673H14.95C15.3187 10.6673 15.6167 10.3687 15.6167 10.0007C15.6167 9.63265 15.3187 9.33398 14.95 9.33398H8.28337C7.9147 9.33398 7.6167 9.63265 7.6167 10.0007C7.6167 10.3687 7.9147 10.6673 8.28337 10.6673Z" fill="#A6B3C9"/>
<path d="M20.95 20H8.28337C7.9147 20 7.6167 20.2987 7.6167 20.6667C7.6167 21.0347 7.9147 21.3333 8.28337 21.3333H20.95C21.3187 21.3333 21.6167 21.0347 21.6167 20.6667C21.6167 20.2987 21.3187 20 20.95 20Z" fill="#A6B3C9"/>
<path d="M21.6167 26.0007C21.6167 25.6327 21.3187 25.334 20.95 25.334H8.28337C7.9147 25.334 7.6167 25.6327 7.6167 26.0007C7.6167 26.3687 7.9147 26.6673 8.28337 26.6673H20.95C21.3187 26.6673 21.6167 26.3687 21.6167 26.0007Z" fill="#A6B3C9"/>
<path d="M8.28337 30.666C7.9147 30.666 7.6167 30.9647 7.6167 31.3327C7.6167 31.7007 7.9147 31.9993 8.28337 31.9993H18.95C19.3187 31.9993 19.6167 31.7007 19.6167 31.3327C19.6167 30.9647 19.3187 30.666 18.95 30.666H8.28337Z" fill="#A6B3C9"/>
<path d="M2.28353 2.33333C2.28353 1.78105 2.73124 1.33333 3.28353 1.33333H21.6169V8.66667C21.6169 9.77124 22.5123 10.6667 23.6169 10.6667H30.9502V20C30.9502 20.3682 31.2487 20.6667 31.6169 20.6667C31.9851 20.6667 32.2835 20.3682 32.2835 20V10.5524C32.2835 10.022 32.0728 9.51329 31.6977 9.13821L23.1453 0.585787C22.7702 0.210714 22.2615 0 21.7311 0H2.9502C1.84563 0 0.950195 0.895431 0.950195 2V38C0.950195 39.1046 1.84563 40 2.9502 40H21.6169C21.9851 40 22.2835 39.7015 22.2835 39.3333C22.2835 38.9651 21.9851 38.6667 21.6169 38.6667H3.28353C2.73124 38.6667 2.28353 38.219 2.28353 37.6667V2.33333ZM22.9502 2.276L30.0075 9.33333H23.9502C23.3979 9.33333 22.9502 8.88562 22.9502 8.33333V2.276Z" fill="#A6B3C9"/>
<path d="M38.2832 38.666H36.9499V37.0927C36.9499 34.736 35.7199 32.594 33.7319 31.3327C35.7192 30.0713 36.9499 27.9293 36.9499 25.5727V23.9993H38.2832C38.6519 23.9993 38.9499 23.7007 38.9499 23.3327C38.9499 22.9647 38.6519 22.666 38.2832 22.666H36.9499H36.2832H26.9499H26.2832H24.9499C24.5812 22.666 24.2832 22.9647 24.2832 23.3327C24.2832 23.7007 24.5812 23.9993 24.9499 23.9993H26.2832V25.5727C26.2832 27.9293 27.5132 30.0713 29.5012 31.3327C27.5139 32.594 26.2832 34.736 26.2832 37.0927V38.666H24.9499C24.5812 38.666 24.2832 38.9647 24.2832 39.3327C24.2832 39.7007 24.5812 39.9993 24.9499 39.9993H26.2832H26.9499H36.2832H36.9499H38.2832C38.6519 39.9993 38.9499 39.7007 38.9499 39.3327C38.9499 38.9647 38.6519 38.666 38.2832 38.666ZM27.6165 25.5727V23.9993H35.6165V25.5727C35.6165 27.7853 34.2612 29.772 32.1519 30.666H31.0819C28.9719 29.772 27.6165 27.7853 27.6165 25.5727ZM27.6165 37.0927C27.6165 34.88 28.9719 32.8933 31.0812 31.9993H32.1512C34.2605 32.8933 35.6159 34.88 35.6159 37.0927V38.666H27.6159V37.0927H27.6165Z" fill="#A6B3C9"/>
</g>
<defs>
<clipPath id="clip0_1759_329368">
<rect width="38" height="40" fill="white"/>
</clipPath>
</defs>
</svg>
