<svg width="24" height="24" viewBox="0 0 24 24" fill="none" xmlns="http://www.w3.org/2000/svg">
<path d="M21.5131 12C21.5131 17.2554 17.2461 21.5298 11.9999 21.5298C6.75373 21.5298 2.48682 17.2554 2.48682 12C2.48682 6.74452 6.75373 2.47009 11.9999 2.47009C17.2461 2.47009 21.5131 6.74452 21.5131 12Z" stroke="#A6B3C9" stroke-width="2" stroke-miterlimit="10"/>
<path d="M9.93652 10.5198H12.1749V16.5971" stroke="#A6B3C9" stroke-width="2" stroke-miterlimit="10" stroke-linecap="round" stroke-linejoin="round"/>
<path d="M9.30664 16.6672H15.0075" stroke="#A6B3C9" stroke-width="2" stroke-miterlimit="10" stroke-linecap="round" stroke-linejoin="round"/>
<path d="M13.4868 7.08459C13.4868 7.81195 12.9423 8.5393 12.0347 8.5393C11.3086 8.5393 10.5825 7.99378 10.5825 7.08459C10.5825 6.35724 11.1271 5.62988 12.0347 5.62988C12.7607 5.62988 13.4868 6.35724 13.4868 7.08459Z" fill="#A6B3C9"/>
</svg>
