<svg width="24" height="24" viewBox="0 0 24 24" fill="none" xmlns="http://www.w3.org/2000/svg">
<path d="M11.9969 8.09833C9.84854 8.09833 8.09532 9.85159 8.09532 12C8.09532 14.1484 9.84854 15.9017 11.9969 15.9017C14.1453 15.9017 15.8985 14.1484 15.8985 12C15.8985 9.85159 14.1453 8.09833 11.9969 8.09833ZM23.6987 12C23.6987 10.3843 23.7134 8.78324 23.6226 7.17048C23.5319 5.29721 23.1046 3.63469 21.7348 2.26486C20.3621 0.892108 18.7025 0.467696 16.8293 0.37696C15.2136 0.286223 13.6126 0.300858 11.9998 0.300858C10.3842 0.300858 8.78314 0.286223 7.17041 0.37696C5.29718 0.467696 3.63469 0.895035 2.26489 2.26486C0.892158 3.63761 0.467754 5.29721 0.377019 7.17048C0.286285 8.78617 0.300919 10.3872 0.300919 12C0.300919 13.6128 0.286285 15.2167 0.377019 16.8295C0.467754 18.7028 0.895085 20.3653 2.26489 21.7351C3.63761 23.1079 5.29718 23.5323 7.17041 23.623C8.78607 23.7138 10.3871 23.6991 11.9998 23.6991C13.6155 23.6991 15.2165 23.7138 16.8293 23.623C18.7025 23.5323 20.365 23.1049 21.7348 21.7351C23.1075 20.3624 23.5319 18.7028 23.6226 16.8295C23.7163 15.2167 23.6987 13.6157 23.6987 12V12ZM11.9969 18.0032C8.67485 18.0032 5.99379 15.3221 5.99379 12C5.99379 8.67787 8.67485 5.99676 11.9969 5.99676C15.319 5.99676 18 8.67787 18 12C18 15.3221 15.319 18.0032 11.9969 18.0032ZM18.2459 7.15291C17.4703 7.15291 16.8439 6.52654 16.8439 5.75089C16.8439 4.97524 17.4703 4.34887 18.2459 4.34887C19.0215 4.34887 19.6479 4.97524 19.6479 5.75089C19.6481 5.93507 19.612 6.11749 19.5416 6.2877C19.4713 6.4579 19.368 6.61255 19.2378 6.74279C19.1075 6.87302 18.9529 6.97629 18.7827 7.04666C18.6125 7.11704 18.4301 7.15314 18.2459 7.15291V7.15291Z" fill="white"/>
</svg>
