<svg width="24" height="24" viewBox="0 0 24 24" fill="none" xmlns="http://www.w3.org/2000/svg">
<path d="M15.396 7H17.396C18.7221 7 19.9938 7.52678 20.9315 8.46447C21.8692 9.40215 22.396 10.6739 22.396 12C22.396 13.3261 21.8692 14.5979 20.9315 15.5355C19.9938 16.4732 18.7221 17 17.396 17H15.396M9.396 17H7.396C6.06991 17 4.79814 16.4732 3.86046 15.5355C2.92278 14.5979 2.396 13.3261 2.396 12C2.396 10.6739 2.92278 9.40215 3.86046 8.46447C4.79814 7.52678 6.06991 7 7.396 7H9.396" stroke="#A6B3C9" stroke-width="2" stroke-linecap="round" stroke-linejoin="round"/>
<path d="M8.396 12H16.396" stroke="#A6B3C9" stroke-width="2" stroke-linecap="round" stroke-linejoin="round"/>
</svg>
