<svg width="16" height="26" viewBox="0 0 16 26" fill="none" xmlns="http://www.w3.org/2000/svg">
<g id="brandico:odnoklassniki" clip-path="url(#clip0_4012_112322)">
<path id="Vector" d="M7.99968 0C11.7747 0 14.8457 3.01005 14.8457 6.71044C14.8457 10.4106 11.7747 13.4193 7.99968 13.4193C4.22479 13.4193 1.15535 10.4106 1.15535 6.71044C1.15535 3.01005 4.22476 0 7.99968 0ZM7.99968 3.93169C6.4373 3.93169 5.16679 5.17884 5.16679 6.71044C5.16679 8.2414 6.43728 9.48758 7.99968 9.48758C9.56238 9.48758 10.8342 8.24143 10.8342 6.71044C10.8342 5.17884 9.56238 3.93169 7.99968 3.93169ZM13.6439 13.6476C14.3212 13.6372 14.9872 13.9645 15.3736 14.5681C15.9641 15.4877 15.6812 16.701 14.7454 17.2794C13.5075 18.0408 12.1642 18.5809 10.7712 18.8922L14.597 22.6444C15.3802 23.4125 15.3795 24.6566 14.5962 25.4248C14.2035 25.8081 13.6915 26 13.1781 26C12.6652 26 12.1514 25.8078 11.76 25.4239L8.0013 21.7376L4.23932 25.4239C3.45679 26.1919 2.18788 26.1919 1.40397 25.4239C0.620428 24.6563 0.620428 23.4109 1.40397 22.6444L5.23143 18.8931C3.83802 18.5817 2.49431 18.0413 1.25727 17.2794C0.319562 16.7011 0.0362812 15.4864 0.626554 14.5681C1.21749 13.6484 2.45474 13.3713 3.39314 13.9506C6.19577 15.6788 9.80694 15.6777 12.6087 13.9506C12.9312 13.7515 13.2891 13.653 13.6439 13.6476V13.6476Z" fill="white"/>
</g>
<defs>
<clipPath id="clip0_4012_112322">
<rect width="15.3636" height="26" fill="white" transform="matrix(-1 0 0 1 15.6821 0)"/>
</clipPath>
</defs>
</svg>
