<svg width="24" height="24" viewBox="0 0 24 24" fill="none" xmlns="http://www.w3.org/2000/svg">
<path d="M12 15C13.6569 15 15 13.6569 15 12C15 10.3431 13.6569 9 12 9C10.3431 9 9 10.3431 9 12C9 13.6569 10.3431 15 12 15Z" stroke="#A6B3C9" stroke-width="2" stroke-linecap="round" stroke-linejoin="round"/>
<path d="M18.727 14.727C18.6059 15.0013 18.5697 15.3055 18.6232 15.6005C18.6767 15.8955 18.8173 16.1677 19.027 16.382L19.082 16.436C19.2514 16.6047 19.3857 16.8052 19.4774 17.026C19.5691 17.2468 19.6163 17.4835 19.6163 17.7225C19.6163 17.9616 19.5691 18.1983 19.4774 18.419C19.3857 18.6398 19.2514 18.8403 19.082 19.009C18.9131 19.1781 18.7126 19.3123 18.4919 19.4038C18.2711 19.4954 18.0345 19.5425 17.7955 19.5425C17.5565 19.5425 17.3199 19.4954 17.0991 19.4038C16.8784 19.3123 16.6779 19.1781 16.509 19.009L16.454 18.954C16.2398 18.7446 15.9678 18.604 15.673 18.5506C15.3782 18.4971 15.0741 18.5331 14.8 18.654C14.5309 18.7691 14.3014 18.9605 14.1397 19.2044C13.978 19.4484 13.8912 19.7343 13.89 20.027V20.182C13.89 20.6642 13.6985 21.1266 13.3575 21.4675C13.0166 21.8085 12.5542 22 12.072 22C11.5898 22 11.1274 21.8085 10.7865 21.4675C10.4455 21.1266 10.254 20.6642 10.254 20.182V20.1C10.2471 19.7992 10.1498 19.5074 9.97488 19.2625C9.79993 19.0176 9.55538 18.8311 9.273 18.727C8.99875 18.6059 8.69449 18.5698 8.3995 18.6232C8.1045 18.6767 7.83229 18.8174 7.618 19.027L7.564 19.082C7.30979 19.3372 6.9855 19.5111 6.63228 19.5817C6.27906 19.6523 5.91284 19.6164 5.58007 19.4785C5.2473 19.3406 4.96299 19.107 4.76322 18.8073C4.56345 18.5075 4.45721 18.1552 4.458 17.795C4.45801 17.5562 4.50508 17.3196 4.59654 17.099C4.68799 16.8783 4.82203 16.6779 4.991 16.509L5.045 16.454C5.25447 16.2398 5.39499 15.9678 5.44846 15.673C5.50193 15.3782 5.46589 15.0742 5.345 14.8C5.22995 14.5311 5.03877 14.3017 4.795 14.14C4.55123 13.9783 4.26551 13.8914 3.973 13.89H3.818C3.33584 13.89 2.87342 13.6985 2.53248 13.3575C2.19154 13.0166 2 12.5542 2 12.072C2 11.5899 2.19154 11.1274 2.53248 10.7865C2.87342 10.4456 3.33584 10.254 3.818 10.254H3.9C4.20085 10.2471 4.49267 10.1498 4.73753 9.9749C4.98238 9.79995 5.16896 9.5554 5.273 9.27302C5.39411 8.99877 5.43027 8.69452 5.37679 8.39952C5.32332 8.10452 5.18267 7.83232 4.973 7.61802L4.918 7.56402C4.74899 7.39508 4.61491 7.1945 4.52342 6.97373C4.43192 6.75297 4.38481 6.51635 4.38476 6.27738C4.38471 6.03841 4.43174 5.80176 4.52314 5.58097C4.61455 5.36017 4.74855 5.15953 4.9175 4.99052C5.08645 4.82151 5.28703 4.68743 5.50779 4.59594C5.72855 4.50445 5.96517 4.45733 6.20415 4.45728C6.44312 4.45724 6.67976 4.50426 6.90056 4.59567C7.12136 4.68708 7.32199 4.82108 7.491 4.99002L7.545 5.04402C7.75929 5.2537 8.0315 5.39434 8.3265 5.44781C8.62149 5.50129 8.92575 5.46514 9.2 5.34402H9.273C9.54175 5.22882 9.77097 5.03758 9.93247 4.79382C10.094 4.55007 10.1807 4.26442 10.182 3.97202V3.81702C10.182 3.33486 10.3735 2.87244 10.7145 2.5315C11.0554 2.19056 11.5178 1.99902 12 1.99902C12.4822 1.99902 12.9446 2.19056 13.2855 2.5315C13.6265 2.87244 13.818 3.33486 13.818 3.81702V3.90002C13.8191 4.19273 13.9058 4.47873 14.0675 4.72272C14.2292 4.96671 14.4588 5.15801 14.728 5.27302C15.0021 5.39392 15.3062 5.42995 15.601 5.37648C15.8958 5.32301 16.1678 5.18249 16.382 4.97302L16.436 4.91802C16.6048 4.74879 16.8053 4.61453 17.0261 4.52292C17.2468 4.4313 17.4835 4.38415 17.7225 4.38415C17.9615 4.38415 18.1982 4.4313 18.4189 4.52292C18.6397 4.61453 18.8402 4.74879 19.009 4.91802C19.178 5.08694 19.312 5.2875 19.4035 5.50824C19.495 5.72899 19.542 5.96558 19.542 6.20452C19.542 6.44346 19.495 6.68006 19.4035 6.9008C19.312 7.12154 19.178 7.3221 19.009 7.49102L18.954 7.54502C18.7443 7.75932 18.6037 8.03152 18.5502 8.32652C18.4967 8.62152 18.5329 8.92577 18.654 9.20002V9.27302C18.7693 9.54193 18.9607 9.77126 19.2046 9.93277C19.4486 10.0943 19.7344 10.1809 20.027 10.182H20.182C20.6642 10.182 21.1266 10.3736 21.4675 10.7145C21.8085 11.0554 22 11.5179 22 12C22 12.4822 21.8085 12.9446 21.4675 13.2855C21.1266 13.6265 20.6642 13.818 20.182 13.818H20.1C19.8073 13.8191 19.5213 13.9058 19.2773 14.0675C19.0333 14.2292 18.842 14.4589 18.727 14.728V14.727Z" stroke="#A6B3C9" stroke-width="2" stroke-linecap="round" stroke-linejoin="round"/>
</svg>
