<svg width="27" height="29" viewBox="0 0 27 29" fill="none" xmlns="http://www.w3.org/2000/svg">
<path d="M23.91 2.77197C23.2038 2.12033 20.3498 0.0485456 13.9929 0.0203987C13.9929 0.0203987 6.49644 -0.431658 2.84204 2.92038C0.807782 4.95506 0.0921688 7.93224 0.0166839 11.6233C-0.058801 15.3144 -0.156463 22.2317 6.51137 24.1073H6.51777L6.5135 26.9694C6.5135 26.9694 6.47085 28.1281 7.23381 28.3643C8.15668 28.6509 8.6983 27.7703 9.57938 26.8209C10.063 26.2998 10.7308 25.5343 11.2341 24.9492C15.7943 25.333 19.3016 24.4557 19.6999 24.3261C20.6206 24.0276 25.8308 23.3597 26.6782 16.4433C27.5529 9.314 26.2551 4.80452 23.91 2.77197ZM24.6828 15.9319C23.9676 21.7072 19.7417 22.0701 18.9625 22.32C18.6312 22.4266 15.5508 23.193 11.6772 22.9401C11.6772 22.9401 8.79084 26.4222 7.88929 27.3276C7.74855 27.4692 7.58308 27.5263 7.47263 27.4982C7.31739 27.4602 7.27475 27.2764 7.27645 27.0077C7.27901 26.6239 7.30119 22.2518 7.30119 22.2518C7.30119 22.2518 7.29778 22.2518 7.30119 22.2518C1.66072 20.6858 1.98953 14.7984 2.0535 11.7154C2.11747 8.6325 2.69661 6.10695 4.41698 4.40833C7.50802 1.60857 13.8756 2.02693 13.8756 2.02693C19.253 2.05039 21.8297 3.66969 22.4272 4.21215C24.4111 5.91078 25.4218 9.97545 24.6828 15.9302V15.9319Z" fill="white"/>
<path d="M16.6095 11.4616C16.5395 10.0517 15.8235 9.31133 14.4609 9.24011" stroke="white" stroke-width="0.907307" stroke-linecap="round" stroke-linejoin="round"/>
<path d="M18.453 12.0804C18.4816 10.7669 18.0922 9.66959 17.2858 8.78808C16.4755 7.90358 15.3539 7.41656 13.9146 7.31122" stroke="white" stroke-width="0.907307" stroke-linecap="round" stroke-linejoin="round"/>
<path d="M20.3414 12.8193C20.3239 10.5398 19.6428 8.74484 18.2982 7.43387C16.9535 6.12291 15.2809 5.46061 13.2808 5.44653" stroke="white" stroke-width="0.907307" stroke-linecap="round" stroke-linejoin="round"/>
<path d="M14.5298 16.2773C14.5298 16.2773 15.0352 16.3199 15.3073 15.9847L15.8378 15.3173C16.0937 14.9864 16.7112 14.7753 17.3159 15.1122C17.7693 15.3706 18.2089 15.6516 18.6341 15.954C19.0354 16.2491 19.8572 16.9349 19.8598 16.9349C20.2513 17.2654 20.3417 17.7507 20.0752 18.2625C20.0752 18.2655 20.073 18.2706 20.073 18.2731C19.7796 18.7819 19.4069 19.2408 18.9689 19.6327C18.9638 19.6353 18.9638 19.6378 18.9591 19.6404C18.5787 19.9581 18.2051 20.1389 17.8379 20.1824C17.7838 20.1918 17.7287 20.1952 17.6741 20.1927C17.5121 20.1944 17.3513 20.1696 17.1974 20.1193L17.1854 20.1018C16.6199 19.9423 15.6757 19.5432 14.1033 18.6757C13.1932 18.1797 12.3271 17.6074 11.5138 16.9652C11.1061 16.6436 10.7172 16.2986 10.3491 15.9323L10.3099 15.893L10.2707 15.8538L10.2314 15.8146C10.2182 15.8018 10.2054 15.7885 10.1922 15.7753C9.82586 15.4073 9.48084 15.0183 9.15929 14.6106C8.51703 13.7974 7.94471 12.9312 7.44872 12.0215C6.58129 10.4487 6.18211 9.50539 6.02261 8.93904L6.00513 8.92709C5.95523 8.77314 5.9305 8.61193 5.9322 8.4503C5.92922 8.39571 5.93263 8.3407 5.94201 8.28654C5.98764 7.9202 6.16889 7.54619 6.48491 7.1645C6.48746 7.15981 6.49002 7.15981 6.49258 7.15469C6.88408 6.71671 7.34296 6.3444 7.85216 6.05099C7.85472 6.05099 7.85984 6.04843 7.86282 6.04843C8.37459 5.78189 8.85991 5.8723 9.18999 6.26167C9.19255 6.26423 9.87703 7.08603 10.1709 7.48734C10.4732 7.91295 10.7543 8.35307 11.0127 8.80683C11.3496 9.41114 11.1385 10.0299 10.8076 10.285L10.1402 10.8155C9.80325 11.0876 9.84761 11.5929 9.84761 11.5929C9.84761 11.5929 10.8362 15.3344 14.5298 16.2773Z" fill="white"/>
</svg>
