<svg width="32" height="20" viewBox="0 0 32 20" fill="none" xmlns="http://www.w3.org/2000/svg">
<path fill-rule="evenodd" clip-rule="evenodd" d="M30.8849 2.13242C31.1007 1.42262 30.8849 0.900024 29.8514 0.900024H26.4389C25.5705 0.900024 25.1701 1.35112 24.953 1.84902C24.953 1.84902 23.2175 6.00382 20.7592 8.70262C19.9636 9.48522 19.6022 9.73352 19.168 9.73352C18.9509 9.73352 18.6246 9.48522 18.6246 8.77412V2.13242C18.6246 1.27962 18.3854 0.900024 17.6626 0.900024H12.2962C11.7541 0.900024 11.4278 1.29522 11.4278 1.67092C11.4278 2.47822 12.6576 2.66542 12.7837 4.93782V9.87522C12.7837 10.9581 12.5848 11.1544 12.1506 11.1544C10.9936 11.1544 8.1791 6.98012 6.5086 2.20392C6.1849 1.27442 5.8573 0.900024 4.985 0.900024H1.5699C0.594902 0.900024 0.399902 1.35112 0.399902 1.84902C0.399902 2.73562 1.5569 7.14002 5.7884 12.9653C8.6094 16.9433 12.5809 19.1 16.1988 19.1C18.3685 19.1 18.6363 18.6216 18.6363 17.7961V14.7892C18.6363 13.8311 18.8417 13.64 19.5294 13.64C20.0364 13.64 20.9035 13.8896 22.9289 15.8071C25.2429 18.0808 25.6238 19.1 26.9264 19.1H30.3389C31.3139 19.1 31.8027 18.6216 31.5219 17.6752C31.2125 16.734 30.1075 15.3677 28.6424 13.7466C27.8468 12.8236 26.6534 11.8291 26.2907 11.3312C25.785 10.6929 25.9293 10.4082 26.2907 9.84012C26.2907 9.84012 30.4507 4.08632 30.8836 2.13242H30.8849Z" fill="white"/>
</svg>
