<svg width="26" height="26" viewBox="0 0 26 26" fill="none" xmlns="http://www.w3.org/2000/svg">
<g clip-path="url(#clip0_4064_44321)">
<path d="M13 26C10.6896 26 8.43642 25.3903 6.45475 24.2327L0.400147 25.8857L2.38182 20.5027C1.66728 19.4881 1.1004 18.3829 0.700257 17.2111C0.233419 15.8582 0 14.4434 0 13C0 11.247 0.342983 9.54159 1.02418 7.941C1.6768 6.39282 2.61524 5.00183 3.81092 3.81092C5.0066 2.62001 6.39282 1.68157 7.941 1.02418C9.54159 0.342983 11.247 0 13 0C14.753 0 16.4584 0.342983 18.059 1.02418C19.6072 1.6768 20.9982 2.61524 22.1891 3.81092C23.38 5.0066 24.3184 6.39282 24.9758 7.941C25.6523 9.54635 26 11.247 26 13C26 14.753 25.657 16.4584 24.9758 18.059C24.3232 19.6072 23.3848 20.9982 22.1891 22.1891C20.9934 23.3848 19.6072 24.3184 18.059 24.9758C16.4584 25.657 14.7578 26 13 26ZM6.68816 22.5654L6.97398 22.7417C8.77941 23.8611 10.8611 24.4518 13 24.4518C19.3166 24.4518 24.4518 19.3166 24.4518 13C24.4518 6.6834 19.3166 1.54819 13 1.54819C6.6834 1.54819 1.54819 6.68816 1.54819 13C1.54819 15.52 2.34848 17.9066 3.86808 19.9121L4.12532 20.2503L2.89154 23.6039L6.68816 22.5654Z" fill="white"/>
<path d="M8.50332 6.27875C8.7939 6.17395 9.11783 6.21682 9.38459 6.36449C9.54656 6.455 9.66565 6.59315 9.79427 6.717C10.4517 7.37439 11.1043 8.02701 11.7617 8.68439C11.9617 8.88446 12.0903 9.16076 12.0856 9.44657C12.0951 9.67999 12.0141 9.91341 11.8903 10.1087C11.8045 10.2183 11.7188 10.3278 11.614 10.4184C11.2948 10.7375 10.9757 11.0519 10.6613 11.3711C10.7518 11.5664 10.8661 11.7427 10.9709 11.9284C11.0709 12.119 11.19 12.2952 11.3043 12.4763C11.7045 13.1336 12.1951 13.7339 12.743 14.2722C13.2479 14.7676 13.8053 15.2106 14.4102 15.5774C14.7675 15.8108 15.1391 16.0156 15.5154 16.2157C15.8679 15.8584 16.2252 15.5059 16.5777 15.1534C16.7063 15.02 16.8635 14.9105 17.0445 14.8533C17.3161 14.7485 17.6257 14.7676 17.8877 14.8914C18.0925 14.9819 18.2402 15.1534 18.3974 15.3059C19.0453 15.9537 19.6931 16.6016 20.341 17.2542C20.5411 17.4543 20.6554 17.7306 20.6649 18.0164V18.0688C20.6602 18.2355 20.6078 18.3975 20.5363 18.5499C20.3982 18.8262 20.1457 19.012 19.9361 19.2263C19.8408 19.3169 19.7551 19.4264 19.636 19.4836C19.3216 19.7122 18.9738 19.898 18.6023 20.0124C18.4308 20.079 18.245 20.1076 18.0687 20.141C17.8687 20.1791 17.6686 20.1886 17.4685 20.1648C17.216 20.1648 16.9636 20.1219 16.7159 20.0838C16.492 20.0552 16.2776 19.9885 16.0585 19.9457C15.8441 19.879 15.6202 19.8266 15.4106 19.7408C15.1391 19.6598 14.8818 19.536 14.6198 19.4312C14.3864 19.3216 14.153 19.2025 13.9196 19.0834C13.6004 18.8977 13.2765 18.7214 12.9716 18.5118C12.5953 18.2784 12.2475 17.9973 11.8903 17.7353C11.4997 17.4209 11.1186 17.0922 10.7565 16.7397C10.4183 16.4301 10.1087 16.0919 9.78951 15.7632C8.87488 14.7819 8.00314 13.7339 7.38863 12.5334C7.07899 11.9141 6.83604 11.2615 6.73601 10.5756C6.65026 10.0897 6.64073 9.58948 6.69313 9.09883C6.74553 8.44144 6.97895 7.79359 7.37433 7.26006C7.40768 7.20766 7.42673 7.14573 7.47437 7.10286C7.6411 6.93613 7.80306 6.77417 7.96979 6.60744C8.12223 6.46453 8.29848 6.33115 8.50332 6.27875Z" fill="white"/>
</g>
<defs>
<clipPath id="clip0_4064_44321">
<rect width="26" height="26" fill="white"/>
</clipPath>
</defs>
</svg>
