<svg width="88" height="88" viewBox="0 0 88 88" fill="none" xmlns="http://www.w3.org/2000/svg">
<path d="M84.612 44.345C84.612 48.2227 84.066 51.973 83.0466 55.5233C82.6021 57.0715 82.0676 58.5817 81.449 60.0478M26.8134 7.76544C18.453 11.7233 11.666 18.4588 7.6461 26.7792M4.37671 36.6267C4.71064 34.8994 5.15454 33.2113 5.70082 31.5699" stroke="white" stroke-width="1.23684" stroke-linecap="round"/>
<ellipse cx="44" cy="44" rx="44" ry="44" fill="#314DD8"/>
<mask id="mask0_248_28290" style="mask-type:alpha" maskUnits="userSpaceOnUse" x="0" y="-1" width="89" height="89">
<ellipse cx="44.2368" cy="43.8091" rx="44" ry="44" fill="#314DD8"/>
</mask>
<g mask="url(#mask0_248_28290)">
<path d="M-1.31645 37.4745C-1.31616 36.1084 -0.208412 35.0011 1.15777 35.0014L8.00173 35.0029L7.9977 53.6382L1.15374 53.6367C-0.212437 53.6364 -1.3197 52.5286 -1.31941 51.1625L-1.31645 37.4745Z" fill="#2E293D"/>
</g>
<ellipse cx="38.8" cy="42.7061" rx="30.2216" ry="30.2216" fill="#00E98F"/>
<path fill-rule="evenodd" clip-rule="evenodd" d="M66.0908 63.0844L61.1693 52.3251L61.1836 52.2847L61.2597 52.0865C61.3066 51.9647 61.3528 51.8389 61.3949 51.7138L61.4581 51.5388C61.4982 51.4267 61.5342 51.3153 61.5742 51.2031L61.6496 50.9755C61.6856 50.864 61.7216 50.7526 61.7535 50.6419C61.7813 50.5571 61.8051 50.473 61.8288 50.3889C61.858 50.2871 61.8913 50.1845 61.9197 50.0786C61.9462 49.9856 61.9727 49.8926 61.995 49.8004C62.0181 49.7122 62.0411 49.624 62.0635 49.5317C62.0886 49.4306 62.117 49.3246 62.1414 49.2194C62.1638 49.1271 62.1868 49.0389 62.2051 48.9473C62.2302 48.8462 62.2511 48.7457 62.2721 48.6452C62.2911 48.5577 62.31 48.4702 62.3283 48.3787C62.3513 48.2652 62.3743 48.1518 62.3973 48.0383L62.4365 47.821C62.4615 47.6945 62.4817 47.5647 62.5027 47.4389L62.5317 47.2612C62.5546 47.1225 62.5742 46.9886 62.593 46.8505L62.618 46.6735C62.6354 46.5273 62.6529 46.381 62.6711 46.2389L62.6851 46.0974C62.7012 45.943 62.718 45.7927 62.73 45.6389L62.74 45.4982C62.7519 45.3444 62.7632 45.1866 62.7745 45.0287L62.7832 44.9051C62.7938 44.7431 62.8003 44.5819 62.8061 44.4165L62.8113 44.2977C62.8165 44.1282 62.8216 43.9588 62.8226 43.79L62.8225 43.7142C62.8255 43.5325 62.8245 43.3514 62.8193 43.1711L62.8178 43.1123C62.8161 42.9272 62.8109 42.7468 62.801 42.563L62.7988 42.5002C62.793 42.3157 62.7838 42.1361 62.7697 41.953L62.7669 41.8861C62.7521 41.6989 62.7415 41.511 62.7227 41.3246L62.7213 41.2911C62.7011 41.0964 62.6809 40.9018 62.6607 40.7071L62.6551 40.6743C62.6308 40.4803 62.6058 40.2823 62.5774 40.089L62.5754 40.0767L62.574 40.0685C62.5442 39.867 62.5137 39.6614 62.4792 39.4565C60.2494 26.2412 47.7304 17.3369 34.5151 19.5667C21.2997 21.7965 12.3955 34.3155 14.6253 47.5308C16.8551 60.7462 29.374 69.6504 42.5894 67.4206C45.5152 66.9269 48.2337 65.9288 50.661 64.5289C50.7688 64.4685 50.8718 64.4048 50.9797 64.3444L51.1898 64.2163C51.2895 64.1573 51.3884 64.0943 51.4873 64.0312L51.6852 63.9051C51.78 63.8427 51.8756 63.7845 51.9663 63.7228C52.042 63.6721 52.1178 63.6214 52.1935 63.5707C52.2801 63.5097 52.3709 63.448 52.4575 63.3871L52.6799 63.2315C52.7591 63.176 52.8375 63.1164 52.9201 63.0561C52.9985 62.9966 53.0811 62.9363 53.1595 62.8767C53.2346 62.8219 53.3089 62.763 53.3874 62.7034C53.4692 62.639 53.5552 62.5739 53.637 62.5095L53.8451 62.3438C53.9303 62.2746 54.019 62.2006 54.1042 62.1315C54.1636 62.0835 54.2222 62.0315 54.2809 61.9794L54.3068 61.9582L66.0908 63.0844Z" fill="white"/>
<path d="M47.9669 36.09C43.6719 36.1097 40.1101 39.7043 40.1298 43.9879C40.1383 45.8516 40.8687 47.5628 42.0164 48.9854L35.4391 49.0156C36.568 47.5768 37.2826 45.8647 37.2741 44.001C37.2544 39.7175 33.6655 36.1556 29.3647 36.1754C25.0812 36.1951 21.5194 39.7897 21.539 44.0733C21.5588 48.3683 25.1534 51.9301 29.437 51.9104L48.0392 51.825C52.3285 51.8053 55.8845 48.2107 55.8648 43.9156C55.8509 39.6321 52.2562 36.0703 47.9669 36.09ZM29.4238 49.049C26.7058 49.0615 24.413 46.7897 24.4005 44.0659C24.3938 41.3478 26.6655 39.055 29.3779 39.0426C32.1017 39.03 34.3944 41.3018 34.4069 44.0199C34.4252 46.7437 32.1534 49.0365 29.4238 49.049ZM48.0261 48.9636C45.308 48.976 43.0095 46.7043 42.997 43.9805C42.9845 41.2624 45.262 38.9696 47.9801 38.9571C50.6982 38.9446 52.9967 41.2164 53.0091 43.9345C53.0274 46.6583 50.7441 48.9511 48.0261 48.9636Z" fill="#243CBB"/>
<path d="M79.6042 36.4703C79.6045 35.1041 78.4972 33.9963 77.1311 33.996L70.2871 33.9946L70.2831 52.6299L77.127 52.6313C78.4932 52.6316 79.601 51.5244 79.6012 50.1582L79.6042 36.4703Z" fill="#2E293D"/>
<path d="M38.7027 74.3648C21.2635 74.361 7.12931 60.2207 7.13308 42.7815C7.13684 25.3423 21.2772 11.2081 38.7164 11.2118C56.1556 11.2156 70.2898 25.3559 70.286 42.7951C70.2853 46.0385 69.7957 49.1675 68.8868 52.1125" stroke="#060C23" stroke-width="4.12281" stroke-linecap="round"/>
<ellipse cx="38.7021" cy="74.3646" rx="4.65914" ry="4.65914" fill="#2E293D"/>
<path d="M44.2351 5.17657C49.9577 5.17657 55.3912 6.41472 60.2822 8.63774M64.6822 10.991C66.1389 11.8953 67.5313 12.8933 68.851 13.9766C69.8321 14.7819 70.7731 15.6344 71.6704 16.5306M76.5786 65.4825C72.5713 71.5037 66.9274 76.3421 60.2822 79.3625" stroke="white" stroke-width="2.47368" stroke-linecap="round"/>
</svg>
